<svg width="257.7875px" height="106.40263671875px" xmlns="http://www.w3.org/2000/svg" viewBox="121.10624999999999 21.798681640625 257.7875 106.40263671875" style="background: rgba(0, 0, 0, 0);" preserveAspectRatio="xMidYMid"><defs><filter id="editing-offset"><feFlood flood-color="#f00" flood-opacity="0.5" result="c1"></feFlood><feFlood flood-color="#0f0" flood-opacity="0.5" result="c2"></feFlood><feFlood flood-color="#00f" flood-opacity="0.5" result="c3"></feFlood><feComposite operator="in" in="c1" in2="SourceAlpha" result="text-c1"></feComposite><feComposite operator="in" in="c2" in2="SourceAlpha" result="text-c2"></feComposite><feComposite operator="in" in="c3" in2="SourceAlpha" result="text-c3"></feComposite><feOffset in="text-c1" dx="-10" dy="0" result="text1"></feOffset><feOffset in="text-c2" dx="10" dy="0" result="text2"></feOffset><feOffset in="text-c3" dx="0" dy="0" result="text3"></feOffset><feMerge><feMergeNode in="text1"></feMergeNode><feMergeNode in="text2"></feMergeNode><feMergeNode in="text3"></feMergeNode></feMerge></filter></defs><g filter="url(#editing-offset)"><g transform="translate(162.18999862670898, 100.1500015258789)"><path d="M31.42 0L31.42 0L3.84 0L3.84-48L28.74-48L28.74-48Q35.65-48 38.59-45.31L38.59-45.31L38.59-45.31Q41.54-42.62 41.54-37.50L41.54-37.50L41.54-37.50Q41.54-32.32 39.68-29.54L39.68-29.54L39.68-29.54Q37.82-26.75 34.62-25.86L34.62-25.86L34.62-25.41L34.62-25.41Q43.90-23.81 43.90-12.74L43.90-12.74L43.90-12.74Q43.90-6.98 40.86-3.49L40.86-3.49L40.86-3.49Q37.82 0 31.42 0ZM25.22-19.14L25.22-19.14L19.20-19.14L19.20-11.26L25.09-11.26L25.09-11.26Q28.35-11.26 28.35-15.23L28.35-15.23L28.35-15.23Q28.35-19.14 25.22-19.14ZM24.06-37.50L24.06-37.50L19.20-37.50L19.20-30.34L23.94-30.34L23.94-30.34Q26.88-30.34 26.88-33.92L26.88-33.92L26.88-33.92Q26.88-37.50 24.06-37.50ZM80 0L80-12.29L64.64-12.29L64.64-48L49.28-48L49.28 0L80 0ZM81.92-23.94L81.92-23.94L81.92-23.94Q81.92-30.53 83.04-35.30L83.04-35.30L83.04-35.30Q84.16-40.06 86.82-43.14L86.82-43.14L86.82-43.14Q89.47-46.21 93.82-47.68L93.82-47.68L93.82-47.68Q98.18-49.15 104.58-49.15L104.58-49.15L104.58-49.15Q111.04-49.15 115.36-47.68L115.36-47.68L115.36-47.68Q119.68-46.21 122.34-43.14L122.34-43.14L122.34-43.14Q124.99-40.06 126.11-35.30L126.11-35.30L126.11-35.30Q127.23-30.53 127.23-23.94L127.23-23.94L127.23-23.94Q127.23-17.66 126.21-12.96L126.21-12.96L126.21-12.96Q125.18-8.26 122.59-5.12L122.59-5.12L122.59-5.12Q120-1.98 115.62-0.42L115.62-0.42L115.62-0.42Q111.23 1.15 104.58 1.15L104.58 1.15L104.58 1.15Q97.92 1.15 93.54-0.42L93.54-0.42L93.54-0.42Q89.15-1.98 86.56-5.12L86.56-5.12L86.56-5.12Q83.97-8.26 82.94-12.96L82.94-12.96L82.94-12.96Q81.92-17.66 81.92-23.94ZM98.43-31.94L98.43-31.94L98.43-11.97L104.83-11.97L104.83-11.97Q108.03-11.97 109.41-12.70L109.41-12.70L109.41-12.70Q110.78-13.44 110.78-16.06L110.78-16.06L110.78-36.03L104.32-36.03L104.32-36.03Q101.25-36.03 99.84-35.30L99.84-35.30L99.84-35.30Q98.43-34.56 98.43-31.94ZM157.18-14.14L157.18-14.14L157.18-16.19L153.28-16.19L153.28-27.97L171.78-27.97L171.78-2.30L171.78-2.30Q162.69 1.15 152.90 1.15L152.90 1.15L152.90 1.15Q146.18 1.15 141.79-0.45L141.79-0.45L141.79-0.45Q137.41-2.05 134.85-5.22L134.85-5.22L134.85-5.22Q132.29-8.38 131.30-13.09L131.30-13.09L131.30-13.09Q130.30-17.79 130.30-24.06L130.30-24.06L130.30-24.06Q130.30-30.72 131.52-35.49L131.52-35.49L131.52-35.49Q132.74-40.26 135.55-43.30L135.55-43.30L135.55-43.30Q138.37-46.34 143.04-47.74L143.04-47.74L143.04-47.74Q147.71-49.15 154.62-49.15L154.62-49.15L154.62-49.15Q156.16-49.15 158.24-48.99L158.24-48.99L158.24-48.99Q160.32-48.83 162.43-48.54L162.43-48.54L162.43-48.54Q164.54-48.26 166.43-47.90L166.43-47.90L166.43-47.90Q168.32-47.55 169.47-47.17L169.47-47.17L167.17-35.39L167.17-35.39Q164.03-35.90 161.22-36.19L161.22-36.19L161.22-36.19Q158.40-36.48 155.97-36.48L155.97-36.48L155.97-36.48Q150.91-36.48 148.86-35.71L148.86-35.71L148.86-35.71Q146.82-34.94 146.82-32.64L146.82-32.64L146.82-10.88L151.87-10.88L151.87-10.88Q154.69-10.88 155.94-11.49L155.94-11.49L155.94-11.49Q157.18-12.10 157.18-14.14Z"></path></g></g><style>text {
  font-size: 64px;
  font-family: Arial Black;
  dominant-baseline: central;
  text-anchor: middle;
}</style></svg>